<mxfile host="app.diagrams.net" modified="2024-02-09T22:23:29.874Z" agent="Mozilla/5.0 (Windows NT 10.0; Win64; x64) AppleWebKit/537.36 (KHTML, like Gecko) Chrome/121.0.0.0 Safari/537.36 OPR/107.0.0.0" version="23.1.2" etag="AGIfTsTIny9QeT_vljCI" type="github">
  <diagram name="Page-1" id="GrHegQ73EqESo6yNgPS1">
    <mxGraphModel>
      <root>
        <mxCell id="0" />
        <mxCell id="1" parent="0" />
      </root>
    </mxGraphModel>
  </diagram>
</mxfile>
